<svg xmlns="http://www.w3.org/2000/svg" viewBox="0 0 132.57 141.66"><defs><style>.cls-1{fill:#423145;fill-rule:evenodd;}</style></defs><title>emblem_1</title><g id="Layer_2" data-name="Layer 2"><g id="Layer_1-2" data-name="Layer 1"><path class="cls-1" d="M4.14,71A37,37,0,0,0,5,106.41a36.3,36.3,0,0,0,30.37,18.41,36.48,36.48,0,0,0,31,16.84A37,37,0,0,0,97.43,124.6a36.9,36.9,0,0,0,30.29-18.45,37.29,37.29,0,0,0,.71-35.47A37,37,0,0,0,97.16,16.84,36.48,36.48,0,0,0,66.21,0,37,37,0,0,0,35.14,17.06,36.9,36.9,0,0,0,4.85,35.51,37.29,37.29,0,0,0,4.14,71ZM66,44.61a28.87,28.87,0,0,1,.12,19.12A30.78,30.78,0,0,1,66,44.61ZM59.87,75.08A34.62,34.62,0,0,1,43.29,84.6,30.73,30.73,0,0,1,59.87,75.08ZM52.58,71.2a36,36,0,0,0-17,14.06,32.47,32.47,0,0,1-14.19-4A31,31,0,0,1,10.9,71.37,31.72,31.72,0,0,1,21.34,61.5a27.39,27.39,0,0,1,14.17-4.23A36.94,36.94,0,0,0,52.58,71.2ZM43.12,57.83A31.93,31.93,0,0,1,59.59,67.3,31.93,31.93,0,0,1,43.12,57.83Zm-33,45.79A30,30,0,0,1,8,77a37.11,37.11,0,0,0,10.7,9,36.24,36.24,0,0,0,14.15,4.64,36.61,36.61,0,0,0-.27,28.1A31.14,31.14,0,0,1,10.13,103.62Zm28.06,15.81a29.25,29.25,0,0,1-3.48-14.38,32.62,32.62,0,0,1,3.82-14.94,35.2,35.2,0,0,0,21-7.9c.14-.23,0-.61.17-.85.34.51,0,.62-.17.85a36.86,36.86,0,0,0,3.77,22.17,29.58,29.58,0,0,1-11,10.82A31.59,31.59,0,0,1,38.19,119.43ZM80,71.07a35.29,35.29,0,0,0,17-14,30.56,30.56,0,0,1,14.19,4,29.34,29.34,0,0,1,10.52,9.85,31.92,31.92,0,0,1-10.43,9.88A29.43,29.43,0,0,1,97,85,36.91,36.91,0,0,0,80,71.07ZM89.17,84.3a31.82,31.82,0,0,1-16.46-9.46A31.92,31.92,0,0,1,89.17,84.3ZM72.66,67.19a32.62,32.62,0,0,1,16.58-9.51A30.71,30.71,0,0,1,72.66,67.19ZM66.2,97.76a32.58,32.58,0,0,1-.12-19.11A30.75,30.75,0,0,1,66.2,97.76Zm25.19,26.86a31.59,31.59,0,0,1-49.8-.06c-.24-.13-.11-.37-.34-.51.23.14.37-.1.61,0A33.5,33.5,0,0,0,55,119.55a38.63,38.63,0,0,0,11-9.84l.27-.48c.24.14.1.38.34.51a36.35,36.35,0,0,0,11.14,9.9,33.11,33.11,0,0,0,13.3,4.47c.24.14.37-.1.61,0ZM80,115.21a30.72,30.72,0,0,1-11-10.75,35.21,35.21,0,0,0,3.51-22.11c-.24-.14-.1-.38-.07-1A1,1,0,0,0,73,82a36.7,36.7,0,0,0,21.11,8A29.54,29.54,0,0,1,98,104.91a33.05,33.05,0,0,1-3.55,14.46A32.6,32.6,0,0,1,80,115.21Zm44.64-38.46a31.52,31.52,0,0,1-2.05,26.76,30.66,30.66,0,0,1-22.09,15.23,37,37,0,0,0-.57-28.26A38.11,38.11,0,0,0,114,85.87,36.35,36.35,0,0,0,124.62,76.75ZM100,22.92a31.46,31.46,0,0,1,22.9,15.39,31,31,0,0,1,2,27.48c-.14.24-.27.48,0,.62-.23-.14-.1-.38-.34-.52A33.24,33.24,0,0,0,114,56.65,36.28,36.28,0,0,0,99.8,52c-.24-.14-.37.1-.61,0l.27-.48A38.37,38.37,0,0,0,102.4,37,33.29,33.29,0,0,0,99.74,23.4c-.24-.14-.1-.37-.34-.51C99.64,23,99.78,22.79,100,22.92Zm-6.18.26a32.88,32.88,0,0,1,3.38,14,34.05,34.05,0,0,1-3.55,14.46A36.8,36.8,0,0,0,73,59.45a37.22,37.22,0,0,0-3.67-21.79A33,33,0,0,1,80,27.31,30.3,30.3,0,0,1,93.83,23.18ZM41.15,17.65a31.59,31.59,0,0,1,49.8.06c.24.14.1.38.34.52-.24-.14-.38.1-.62,0a33.24,33.24,0,0,0-13.08,4.54,38.33,38.33,0,0,0-11,9.84l-.28.47c-.24-.13-.1-.37-.34-.51a36.28,36.28,0,0,0-11.13-9.89,33.39,33.39,0,0,0-13.3-4.48c-.24-.13-.38.11-.62,0Zm11.41,9.42a30.53,30.53,0,0,1,11,10.75A35.34,35.34,0,0,0,60,59.93a3.1,3.1,0,0,1,.07,1,1,1,0,0,0-.58-.65,36.57,36.57,0,0,0-21.11-8,29.58,29.58,0,0,1-3.82-14.9A33.06,33.06,0,0,1,38.13,22.9,32.69,32.69,0,0,1,52.56,27.07Zm-20.24-4c.24.13.38-.1.62,0l-.28.48A34.21,34.21,0,0,0,29.9,37.22,34.71,34.71,0,0,0,33,51.7a.92.92,0,0,1,.34.51c-.24-.14-.37.1-.61,0a34.9,34.9,0,0,0-14.08,4.61A39.31,39.31,0,0,0,8.25,66L8,66.52c-.24-.14-.1-.38-.34-.52A31.06,31.06,0,0,1,9.48,38.49,31.44,31.44,0,0,1,32.32,23.06Z"/><path class="cls-1" d="M8.26,71a34.61,34.61,0,0,0,.84,33.09,33.87,33.87,0,0,0,28.35,17.18A34.08,34.08,0,0,0,66.35,137a34.6,34.6,0,0,0,29-15.93,34.42,34.42,0,0,0,29-50.34,34.54,34.54,0,0,0-29.2-50.28A34,34,0,0,0,66.21,4.7a34.6,34.6,0,0,0-29,15.92A34.43,34.43,0,0,0,8.26,71ZM66,46.35a27,27,0,0,1,.11,17.85A28.74,28.74,0,0,1,66,46.35ZM60.3,74.8a32.41,32.41,0,0,1-15.48,8.89A28.65,28.65,0,0,1,60.3,74.8Zm-6.81-3.62A33.66,33.66,0,0,0,37.64,84.3a30.08,30.08,0,0,1-13.25-3.76,28.85,28.85,0,0,1-9.82-9.2,29.73,29.73,0,0,1,9.74-9.22,25.53,25.53,0,0,1,13.24-3.95A34.45,34.45,0,0,0,53.49,71.18ZM44.66,58.7A29.87,29.87,0,0,1,60,67.53,29.72,29.72,0,0,1,44.66,58.7ZM13.85,101.45a27.9,27.9,0,0,1-2-24.86,34.6,34.6,0,0,0,10,8.41,34,34,0,0,0,13.22,4.33,34.15,34.15,0,0,0-.26,26.23A29.06,29.06,0,0,1,13.85,101.45Zm26.2,14.77a27.37,27.37,0,0,1-3.25-13.43,30.55,30.55,0,0,1,3.57-14A33,33,0,0,0,60,81.46c.13-.22,0-.57.17-.79.31.48,0,.57-.17.79a34.44,34.44,0,0,0,3.52,20.7,27.59,27.59,0,0,1-10.26,10.11A29.62,29.62,0,0,1,40.05,116.22Zm39-45.16A33,33,0,0,0,94.89,57.93a28.63,28.63,0,0,1,13.25,3.77A27.35,27.35,0,0,1,118,70.9a29.73,29.73,0,0,1-9.74,9.22A27.42,27.42,0,0,1,95,84.07,34.48,34.48,0,0,0,79.05,71.06Zm8.6,12.35a29.8,29.8,0,0,1-15.37-8.83A29.77,29.77,0,0,1,87.65,83.41Zm-15.41-16a30.38,30.38,0,0,1,15.48-8.89A28.72,28.72,0,0,1,72.24,67.44ZM66.2,96a30.42,30.42,0,0,1-.11-17.85A28.74,28.74,0,0,1,66.2,96Zm23.52,25.08a29.49,29.49,0,0,1-46.5-.06c-.22-.12-.09-.35-.32-.47.23.12.35-.1.58,0a31.09,31.09,0,0,0,12.22-4.24A35.86,35.86,0,0,0,66,107.14l.26-.45c.22.13.09.35.32.48A34,34,0,0,0,77,116.41a31.07,31.07,0,0,0,12.42,4.17c.22.13.35-.09.57,0Zm-10.65-8.79a28.57,28.57,0,0,1-10.24-10A32.82,32.82,0,0,0,72.1,81.59c-.22-.13-.09-.35-.06-.93a1,1,0,0,0,.54.61,34.26,34.26,0,0,0,19.71,7.48,27.52,27.52,0,0,1,3.57,13.9,31,31,0,0,1-3.32,13.51A30.53,30.53,0,0,1,79.07,112.27Zm41.68-35.91a29.44,29.44,0,0,1-1.91,25,28.65,28.65,0,0,1-20.63,14.23,34.55,34.55,0,0,0-.53-26.39,35.49,35.49,0,0,0,13.14-4.3A34,34,0,0,0,120.75,76.36Zm-23-50.26a29.4,29.4,0,0,1,21.38,14.37A28.92,28.92,0,0,1,121,66.13c-.12.22-.25.45,0,.57-.22-.12-.09-.35-.32-.48a31.12,31.12,0,0,0-9.86-8.63,34,34,0,0,0-13.21-4.33c-.22-.13-.35.09-.57,0l.25-.44A36.08,36.08,0,0,0,100,39.24a31.14,31.14,0,0,0-2.49-12.69c-.22-.13-.09-.35-.32-.48C97.43,26.2,97.55,26,97.78,26.1ZM92,26.34a30.87,30.87,0,0,1,3.15,13.08,31.68,31.68,0,0,1-3.32,13.5,34.57,34.57,0,0,0-19.3,7.28,34.75,34.75,0,0,0-3.42-20.34,30.89,30.89,0,0,1,10-9.66A28.2,28.2,0,0,1,92,26.34Zm-49.2-5.16a29.49,29.49,0,0,1,46.5.06c.22.12.1.35.32.47-.22-.12-.35.1-.57,0a31,31,0,0,0-12.22,4.24A35.77,35.77,0,0,0,66.52,35.1l-.26.45c-.22-.13-.09-.35-.31-.48a34.11,34.11,0,0,0-10.4-9.24,31.12,31.12,0,0,0-12.42-4.17c-.23-.13-.35.09-.58,0ZM53.46,30A28.49,28.49,0,0,1,63.7,40a33,33,0,0,0-3.27,20.64,3.4,3.4,0,0,1,.06.93A.93.93,0,0,0,60,61a34.26,34.26,0,0,0-19.71-7.48,27.63,27.63,0,0,1-3.57-13.9A31,31,0,0,1,40,26.08,30.53,30.53,0,0,1,53.46,30ZM34.57,26.23c.23.12.35-.1.58,0l-.26.44a31.85,31.85,0,0,0-2.58,12.75A32.35,32.35,0,0,0,35.21,53a.89.89,0,0,1,.31.48c-.22-.13-.35.09-.57,0a32.53,32.53,0,0,0-13.14,4.3,36.63,36.63,0,0,0-9.71,8.65l-.26.44c-.22-.12-.1-.35-.32-.47a29,29,0,0,1,1.73-25.69A29.34,29.34,0,0,1,34.57,26.23Z"/></g></g></svg>