<svg xmlns="http://www.w3.org/2000/svg" viewBox="0 0 115.25 123.12"><defs><style>.cls-1{fill:none;stroke:#836395;stroke-miterlimit:10;stroke-width:0.5px;fill-rule:evenodd;}</style></defs><title>emblem-outline-6</title><g id="Layer_2" data-name="Layer 2"><g id="Layer_1-2" data-name="Layer 1"><path class="cls-1" d="M111.41,61.43a32,32,0,0,0-27.06-46.6A31.57,31.57,0,0,0,57.56.25,32.08,32.08,0,0,0,30.66,15,32,32,0,0,0,4.45,31a32.22,32.22,0,0,0-.61,30.69,32.1,32.1,0,0,0,.77,30.67A31.41,31.41,0,0,0,30.9,108.29a31.56,31.56,0,0,0,26.79,14.57A32.06,32.06,0,0,0,84.58,108.1a31.94,31.94,0,0,0,26.22-16A32.27,32.27,0,0,0,111.41,61.43Zm-99.7-26A25.44,25.44,0,0,1,27.49,23.48a28.25,28.25,0,0,0-1.36,9A30.17,30.17,0,0,0,28.81,45a.83.83,0,0,1,.3.44c-.21-.12-.33.09-.53,0a30,30,0,0,0-12.19,4,36.47,36.47,0,0,0-7,5.72A25.05,25.05,0,0,1,11.71,35.43ZM21.36,70a25,25,0,0,1-8.5-8,25.83,25.83,0,0,1,8.43-8,22,22,0,0,1,10.3-3.36A31.88,31.88,0,0,0,45.76,61.88,31.36,31.36,0,0,0,31.7,73.13,25.81,25.81,0,0,1,21.36,70ZM63.14,58.41a25.49,25.49,0,0,1,4.21-3.69,27.83,27.83,0,0,1,8.82-3.79,24.88,24.88,0,0,1-7.6,5.71A26.34,26.34,0,0,1,63.14,58.41Zm0,6.62a29.14,29.14,0,0,1,5.58,1.91,25.28,25.28,0,0,1,7.36,5.51,25.24,25.24,0,0,1-8.76-3.77A29.31,29.31,0,0,1,63.18,65Zm-5.63,18.3a27.72,27.72,0,0,1-1.16-9.67,25.63,25.63,0,0,1,1-5.34,26.91,26.91,0,0,1,1.23,5.76A25,25,0,0,1,57.55,83.33Zm-.19-43a22.43,22.43,0,0,1,1.3,9.27,27.34,27.34,0,0,1-1.21,5.77,26.23,26.23,0,0,1-1.19-5.47A25,25,0,0,1,57.36,40.37ZM51.83,58.5a25.73,25.73,0,0,1-5.13-1.7,26.29,26.29,0,0,1-7.8-5.74,25.23,25.23,0,0,1,8.47,3.58A29,29,0,0,1,51.83,58.5ZM39,72.69a25,25,0,0,1,7.29-5.55,26.31,26.31,0,0,1,5.74-1.9A32.73,32.73,0,0,1,49,68,27.4,27.4,0,0,1,39,72.69ZM69.46,61.77a30.63,30.63,0,0,0,14.09-11.3,24.66,24.66,0,0,1,10.3,3.18,23.78,23.78,0,0,1,8.5,8,25.64,25.64,0,0,1-8.43,8A24.2,24.2,0,0,1,83.6,73,31.89,31.89,0,0,0,69.46,61.77ZM80.21,45.06A31.93,31.93,0,0,0,63.42,51.7a32.22,32.22,0,0,0-2.71-17.86,26.45,26.45,0,0,1,8-7.45,24.35,24.35,0,0,1,11.16-3.34,26.72,26.72,0,0,1,2.73,11.32A28,28,0,0,1,80.21,45.06ZM67.41,19.92a33.25,33.25,0,0,0-9.57,8.52l-.24.41c-.2-.12-.08-.32-.29-.44a31.51,31.51,0,0,0-9.64-8.57,30.13,30.13,0,0,0-8.51-3.38A24.83,24.83,0,0,1,57.3,8.78a25.32,25.32,0,0,1,18.46,7.76A27.67,27.67,0,0,0,67.41,19.92ZM46.53,26.19a25,25,0,0,1,8.25,7.74A30.55,30.55,0,0,0,52.2,52.12a3.17,3.17,0,0,1,0,.86.85.85,0,0,0-.5-.57,31.81,31.81,0,0,0-17.2-6.84A24.39,24.39,0,0,1,32,34.51a26.66,26.66,0,0,1,2.88-11.69A26.6,26.6,0,0,1,46.53,26.19Zm-37,43.34a33.73,33.73,0,0,0,6.87,5.16,31.63,31.63,0,0,0,12.25,4,31.92,31.92,0,0,0-2.55,12.55,34.53,34.53,0,0,0,1.15,8.34,24.93,24.93,0,0,1-15-11.54A24,24,0,0,1,9.55,69.53Zm25.16,8.63a30.55,30.55,0,0,0,17.11-6.75A1,1,0,0,0,51.9,71l.17-.13c.09.29-.15.38-.25.55a31.73,31.73,0,0,0,2.82,18.24,24.06,24.06,0,0,1-8.27,7.77,25.53,25.53,0,0,1-11.46,3.42A23.78,23.78,0,0,1,32.1,89.22,25.71,25.71,0,0,1,34.71,78.16Zm13.1,25.56a33.17,33.17,0,0,0,9.56-8.51l.24-.41c.21.12.09.32.3.44a31.31,31.31,0,0,0,9.63,8.56A29.55,29.55,0,0,0,76,107.18a24.78,24.78,0,0,1-18.12,7.65,25.28,25.28,0,0,1-18.44-7.73A27.36,27.36,0,0,0,47.81,103.72Zm20.88-6.3a24.82,24.82,0,0,1-8.25-7.72A30.57,30.57,0,0,0,63,71.53c-.21-.12-.09-.33-.06-.86a.86.86,0,0,0,.5.56,31.84,31.84,0,0,0,17.22,6.85,24.37,24.37,0,0,1,2.54,11,26.72,26.72,0,0,1-2.87,11.69A26.3,26.3,0,0,1,68.69,97.42ZM88.3,99.6a30.1,30.1,0,0,0,1.11-8.5,33,33,0,0,0-2.68-12.54,33,33,0,0,0,12.18-4,35.24,35.24,0,0,0,6.78-5.15A25.22,25.22,0,0,1,103.11,88,24.73,24.73,0,0,1,88.3,99.6ZM98.89,49.28a31.73,31.73,0,0,0-12.26-4c-.2-.11-.32.09-.53,0l.24-.41a33.19,33.19,0,0,0,2.54-12.55,27.68,27.68,0,0,0-1.27-8.92,25.68,25.68,0,0,1,15.78,11.93,24.8,24.8,0,0,1,2.51,19.47A29.64,29.64,0,0,0,98.89,49.28Z"/></g></g></svg>