<svg xmlns="http://www.w3.org/2000/svg" viewBox="0 0 52 48.69"><defs><style>.cls-1{fill:none;stroke:#836395;stroke-miterlimit:10;fill-rule:evenodd;}</style></defs><title>Asset 2</title><g id="Layer_2" data-name="Layer 2"><g id="Layer_1-2" data-name="Layer 1"><path class="cls-1" d="M13.25,2.26A13.12,13.12,0,0,1,26,2.05,13.13,13.13,0,0,1,45.31,13.2a13.13,13.13,0,0,1,0,22.29A13.13,13.13,0,0,1,26,46.64,13.13,13.13,0,0,1,6.69,35.49a13.13,13.13,0,0,1,0-22.29A13.13,13.13,0,0,1,13.25,2.26ZM8.43,36.41a11.47,11.47,0,0,0,15.91,9.18,13.14,13.14,0,0,1-5.23-9.31,13,13,0,0,1-5.48,1.19A13.24,13.24,0,0,1,8.43,36.41Zm19.23,9.18a11.47,11.47,0,0,0,15.91-9.18,13.24,13.24,0,0,1-5.2,1.06,13,13,0,0,1-5.48-1.19,13.14,13.14,0,0,1-5.23,9.31Zm3.61-10.2A11.47,11.47,0,0,1,26,44.71a11.47,11.47,0,0,1-5.27-9.32A13.09,13.09,0,0,0,26,28.75,13.09,13.09,0,0,0,31.27,35.39Zm1.66-1a11.51,11.51,0,0,0,10.7.1A11.47,11.47,0,0,0,38.2,25.3a13.1,13.1,0,0,1-8.38,1.25A13.19,13.19,0,0,1,32.93,34.43Zm-1.8-1.2a11.49,11.49,0,0,0-4.07-7.06A11.44,11.44,0,0,0,31.13,33.23ZM22.18,22.14a13.19,13.19,0,0,1-3.11-7.88,11.35,11.35,0,0,0-5.44-1.38,11.52,11.52,0,0,0-5.27,1.28,11.49,11.49,0,0,0,1.53,5.2,11.37,11.37,0,0,0,3.91,4A13.1,13.1,0,0,1,22.18,22.14Zm1.71,2.2a11.5,11.5,0,0,0-8.15,0A11.39,11.39,0,0,0,23.89,24.34Zm-10.09,1a13.1,13.1,0,0,0,8.38,1.25,13.19,13.19,0,0,0-3.11,7.88,11.35,11.35,0,0,1-5.44,1.37,11.52,11.52,0,0,1-5.27-1.27,11.49,11.49,0,0,1,1.53-5.2A11.37,11.37,0,0,1,13.8,25.3Zm-1.58-1a13.25,13.25,0,0,0-3.78,4.15,13.11,13.11,0,0,0-1.67,5,11.47,11.47,0,0,1,0-18.37,13.09,13.09,0,0,0,5.45,9.18ZM14.08,3.71A11.47,11.47,0,0,1,24.34,3.1a13.14,13.14,0,0,0-5.23,9.31,13,13,0,0,0-5.48-1.19,13.24,13.24,0,0,0-5.2,1.06A11.47,11.47,0,0,1,14.08,3.71ZM22.26,7.9a11.46,11.46,0,0,0-1.53,5.4A13.11,13.11,0,0,1,26,19.93a13.11,13.11,0,0,1,5.27-6.63A11.47,11.47,0,0,0,26,4,11.44,11.44,0,0,0,22.26,7.9Zm-1.39,7.56a11.49,11.49,0,0,0,4.07,7.06A11.42,11.42,0,0,0,20.87,15.46Zm7.24,8.88a11.39,11.39,0,0,0,8.15,0A11.5,11.5,0,0,0,28.11,24.34Zm15.45,4.15a13.25,13.25,0,0,0-3.78-4.15,13.09,13.09,0,0,0,5.45-9.18,11.47,11.47,0,0,1,0,18.37A13.11,13.11,0,0,0,43.56,28.49Zm-1.45-9.13a11.49,11.49,0,0,0,1.53-5.2,11.52,11.52,0,0,0-5.27-1.28,11.35,11.35,0,0,0-5.44,1.38,13.19,13.19,0,0,1-3.11,7.88,13.1,13.1,0,0,1,8.38,1.25A11.37,11.37,0,0,0,42.11,19.36Zm-3.74-8.14a13.24,13.24,0,0,1,5.2,1.06A11.47,11.47,0,0,0,27.66,3.1a13.14,13.14,0,0,1,5.23,9.31A13,13,0,0,1,38.37,11.22Zm-13.43,15a11.44,11.44,0,0,1-4.07,7.06A11.49,11.49,0,0,1,24.94,26.17Zm2.12-3.65a11.49,11.49,0,0,0,4.07-7.06A11.42,11.42,0,0,0,27.06,22.52Z"/></g></g></svg>