<svg width="51" height="48" viewBox="0 0 51 48" fill="none" xmlns="http://www.w3.org/2000/svg">
<path fill-rule="evenodd" clip-rule="evenodd" d="M12.75 1.76121C16.8235 -0.590642 21.6334 -0.511542 25.4999 1.54839C29.3665 -0.511534 34.1764 -0.590631 38.2499 1.76121C42.3234 4.11306 44.6599 8.31813 44.8092 12.6966C48.5264 15.0151 51 19.1411 51 23.8449C51 28.5486 48.5265 32.6746 44.8092 34.9931C44.6599 39.3715 42.3235 43.5766 38.25 45.9285C34.1764 48.2803 29.3665 48.2012 25.4999 46.1413C21.6334 48.2012 16.8235 48.2803 12.7499 45.9285C8.67638 43.5766 6.33992 39.3715 6.19063 34.993C2.47345 32.6745 0 28.5485 0 23.8449C0 19.1412 2.47347 15.0152 6.19068 12.6966C6.33997 8.31817 8.67644 4.11306 12.75 1.76121ZM7.93389 35.9062C8.34699 39.3705 10.331 42.6039 13.5849 44.4825C16.8388 46.3611 20.631 46.4627 23.8377 45.0883C22.4457 44.052 21.2376 42.7211 20.3148 41.1228C19.3367 39.4287 18.7791 37.6074 18.6095 35.7795C16.9417 36.5465 15.0855 36.9743 13.1294 36.9743C11.2839 36.9743 9.52729 36.5935 7.93389 35.9062ZM27.1623 45.0883C30.369 46.4627 34.1612 46.3611 37.4151 44.4825C40.6689 42.6039 42.653 39.3705 43.0661 35.9062C41.4727 36.5935 39.7161 36.9743 37.8705 36.9743C35.9144 36.9743 34.0582 36.5465 32.3904 35.7794C32.2208 37.6073 31.6631 39.4287 30.6851 41.1228C29.7623 42.7211 28.5542 44.052 27.1623 45.0883ZM30.772 34.8918C30.72 36.7305 30.2236 38.5831 29.2393 40.2879C28.2903 41.9317 26.9956 43.2513 25.5 44.2082C24.0044 43.2513 22.7097 41.9316 21.7607 40.2879C20.7764 38.5831 20.28 36.7305 20.228 34.8918C22.6454 33.3352 24.5189 31.0067 25.5 28.2547C26.4811 31.0067 28.3545 33.3352 30.772 34.8918ZM32.4308 33.9338C34.0493 34.8083 35.902 35.3047 37.8706 35.3047C39.7685 35.3047 41.5587 34.8433 43.135 34.0266C43.0542 32.253 42.5587 30.4718 41.6096 28.8281C40.6254 27.1233 39.2692 25.767 37.7028 24.8027C35.146 26.1179 32.1928 26.5761 29.3189 26.0497C31.2117 28.2754 32.2915 31.062 32.4308 33.9338ZM30.6276 32.726C30.1871 30.0163 28.7809 27.4825 26.5559 25.6736C27.01 28.5049 28.5012 30.9897 30.6276 32.726ZM21.6809 21.6399C19.7881 19.4143 18.7083 16.6276 18.569 13.7558C16.9506 12.8814 15.098 12.385 13.1295 12.385C11.2314 12.385 9.44108 12.8465 7.86462 13.6633C7.9455 15.4369 8.44102 17.2179 9.38999 18.8616C10.3743 20.5664 11.7305 21.9227 13.297 22.887C15.8538 21.5718 18.807 21.1136 21.6809 21.6399ZM23.3882 23.8448C20.7092 22.8224 17.8117 22.8715 15.2449 23.8449C17.8117 24.8182 20.7092 24.8672 23.3882 23.8448ZM13.2972 24.8027C15.854 26.1179 18.8071 26.5761 21.681 26.0497C19.7882 28.2754 18.7084 31.0621 18.569 33.9339C16.9506 34.8083 15.098 35.3047 13.1295 35.3047C11.2315 35.3047 9.44133 34.8433 7.86495 34.0265C7.94581 32.2529 8.44133 30.4718 9.39033 28.8281C10.3746 27.1233 11.7308 25.7671 13.2972 24.8027ZM11.7191 23.8448C10.2208 24.9057 8.92226 26.2993 7.94421 27.9933C7.02142 29.5916 6.47289 31.3033 6.27141 33.0269C3.4778 30.937 1.66965 27.6021 1.66965 23.8449C1.66965 20.0876 3.47782 16.7527 6.27145 14.6628C6.47293 16.3864 7.02147 18.098 7.94426 19.6964C8.9223 21.3904 10.2208 22.784 11.7191 23.8448ZM13.5846 3.20716C16.8385 1.32851 20.6308 1.22699 23.8375 2.60146C22.4456 3.63773 21.2375 4.96862 20.3147 6.56693C19.3367 8.26094 18.7791 10.0823 18.6095 11.9102C16.9417 11.1432 15.0855 10.7154 13.1294 10.7154C11.2838 10.7154 9.52702 11.0963 7.93353 11.7836C8.34658 8.31927 10.3306 5.08582 13.5846 3.20716ZM21.7608 7.40174C20.7765 9.10658 20.28 10.9592 20.2281 12.798C22.6455 14.3546 24.5189 16.683 25.5 19.435C26.4811 16.6831 28.3544 14.3547 30.7716 12.7981C30.7197 10.9593 30.2233 9.10663 29.239 7.40174C28.29 5.75809 26.9953 4.43845 25.4999 3.48163C24.0044 4.43845 22.7097 5.75809 21.7608 7.40174ZM20.3725 14.9638C20.813 17.6734 22.2192 20.2072 24.4441 22.016C23.9901 19.1848 22.4989 16.7 20.3725 14.9638ZM27.6116 23.8448C30.2906 24.8672 33.1881 24.8182 35.755 23.8448C33.1881 22.8714 30.2906 22.8224 27.6116 23.8448ZM43.0557 27.9933C42.0776 26.2993 40.7791 24.9057 39.2808 23.8448C40.779 22.784 42.0776 21.3904 43.0556 19.6964C43.9784 18.098 44.527 16.3863 44.7284 14.6626C47.5222 16.7525 49.3304 20.0875 49.3304 23.8449C49.3304 27.6022 47.5222 30.9371 44.7285 33.027C44.527 31.3034 43.9785 29.5917 43.0557 27.9933ZM41.6097 18.8615C42.5587 17.2178 43.0543 15.4368 43.1351 13.6632C41.5587 12.8464 39.7685 12.385 37.8706 12.385C35.902 12.385 34.0493 12.8814 32.4309 13.7559C32.2915 16.6277 31.2117 19.4143 29.319 21.6399C32.1928 21.1136 35.146 21.5718 37.7028 22.887C39.2693 21.9226 40.6255 20.5664 41.6097 18.8615ZM37.8705 10.7154C39.7161 10.7154 41.4728 11.0962 43.0662 11.7835C42.6531 8.31921 40.6691 5.0858 37.4152 3.20716C34.1613 1.32853 30.369 1.22699 27.1623 2.60141C28.5542 3.6377 29.7623 4.96859 30.6851 6.56692C31.6632 8.26094 32.2208 10.0823 32.3904 11.9103C34.0582 11.1432 35.9144 10.7154 37.8705 10.7154ZM24.4441 25.6735C23.9901 28.5049 22.4988 30.9897 20.3724 32.726C20.8128 30.0163 22.2191 27.4824 24.4441 25.6735ZM26.556 22.0157C28.7806 20.207 30.1867 17.6734 30.6272 14.9641C28.5011 16.7002 27.0101 19.1848 26.556 22.0157Z" fill="#39383B"/>
</svg>
